<?xml version="1.0" standalone="no"?>
<!DOCTYPE svg PUBLIC "-//W3C//DTD SVG 20010904//EN"
 "http://www.w3.org/TR/2001/REC-SVG-20010904/DTD/svg10.dtd">
<svg version="1.0" xmlns="http://www.w3.org/2000/svg"
 width="1024.000000pt" height="1024.000000pt" viewBox="0 0 1024.000000 1024.000000"
 preserveAspectRatio="xMidYMid meet">

<g transform="translate(0.000000,1024.000000) scale(0.100000,-0.100000)"
fill="#000000" stroke="none">
<path d="M5450 9363 c-483 -15 -776 -26 -990 -38 -652 -38 -753 -60 -1094
-231 -105 -53 -195 -100 -201 -104 -5 -4 -82 -44 -170 -90 -186 -97 -326 -171
-725 -385 -197 -106 -703 -394 -792 -452 -90 -58 -184 -146 -209 -195 -29 -56
-25 -124 9 -179 144 -225 495 -286 893 -155 227 74 634 236 949 376 274 122
428 186 518 214 106 33 245 56 342 56 172 0 424 -48 655 -125 309 -103 508
-198 966 -461 497 -286 566 -322 902 -477 91 -42 112 -73 79 -116 -10 -15 -30
-27 -44 -29 -65 -8 -509 198 -858 398 -282 163 -317 182 -505 277 -535 271
-1009 410 -1281 375 -122 -15 -187 -37 -227 -75 -85 -79 -75 -278 20 -434 96
-156 183 -221 633 -478 493 -281 645 -399 1105 -858 367 -366 529 -507 766
-665 317 -212 634 -305 984 -289 227 11 335 35 749 172 587 193 986 256 1523
239 l212 -7 34 34 c27 27 36 45 40 84 4 28 9 410 13 851 6 736 5 804 -10 836
-16 33 -35 48 -80 62 -10 4 -78 1 -152 -5 -289 -24 -571 35 -869 180 -249 122
-391 232 -675 524 -637 655 -778 781 -1049 940 -247 145 -411 200 -685 226
-96 10 -530 12 -776 4z"/>
<path d="M3340 7808 c-370 -150 -960 -396 -1194 -496 -94 -41 -118 -67 -124
-134 -5 -64 22 -140 73 -210 114 -155 354 -199 625 -116 36 11 144 55 240 98
211 94 599 266 657 291 l42 18 -67 68 c-133 136 -203 341 -163 481 12 40 9 40
-89 0z"/>
<path d="M3619 7066 c-251 -106 -527 -228 -579 -256 -83 -47 -110 -121 -71
-198 25 -49 42 -63 131 -110 156 -83 294 -93 466 -34 94 32 412 166 644 272
74 34 143 64 153 67 9 3 17 8 17 12 0 3 -62 39 -138 78 -75 40 -193 105 -262
144 -195 112 -158 109 -361 25z"/>
<path d="M2680 5480 c-194 -24 -285 -44 -810 -178 -541 -138 -844 -177 -1177
-152 -194 15 -211 11 -232 -52 -7 -22 -11 -288 -13 -784 l-3 -750 27 -42 c38
-57 71 -65 223 -51 260 24 547 -32 779 -151 115 -59 268 -162 381 -255 113
-93 332 -310 521 -515 590 -640 984 -911 1440 -991 224 -39 677 -35 1709 16
160 8 355 17 435 20 346 14 537 63 810 207 462 243 1388 777 1755 1011 396
252 460 356 311 502 -99 96 -258 160 -425 171 -226 15 -457 -54 -828 -247
-219 -114 -808 -407 -873 -434 -451 -189 -865 -218 -1330 -94 -355 96 -713
248 -1125 480 -310 174 -478 267 -620 340 -71 37 -148 82 -169 101 -34 29 -38
38 -32 61 13 52 45 55 154 12 122 -48 429 -202 677 -340 437 -244 846 -419
1160 -499 317 -79 700 -82 875 -5 95 42 127 103 116 217 -17 168 -116 311
-293 425 -37 25 -212 116 -388 204 -345 173 -479 248 -650 368 -208 146 -313
241 -730 664 -288 292 -477 443 -715 568 -226 120 -438 173 -710 178 -96 2
-209 0 -250 -5z"/>
<path d="M6505 4446 c-88 -19 -167 -43 -280 -88 -150 -60 -550 -231 -657 -281
-92 -44 -93 -45 -65 -56 25 -10 325 -167 417 -218 19 -11 84 -46 143 -77 l108
-58 52 20 c29 11 140 61 247 109 107 49 278 127 379 173 101 46 203 98 225
115 124 94 90 208 -88 295 -141 70 -333 96 -481 66z"/>
<path d="M7475 4060 c-90 -18 -262 -87 -490 -198 -44 -21 -207 -96 -362 -167
l-283 -128 68 -72 c76 -81 123 -155 160 -253 21 -56 25 -85 26 -174 1 -60 2
-108 3 -108 41 -1 1389 630 1439 674 31 27 37 39 41 81 14 146 -118 288 -314
339 -64 17 -218 20 -288 6z"/>
</g>
</svg>
